#!OML:ASF H:\Terrain\Walking\May29\JustinRory\Justin.ASF
:FULLY-SPECIFIED
:DEGREES
391
root 14.0248 17.5187 29.4495 54.2814 -72.009 -43.7181
lowerback 13.5349 -6.52557 -1.94282
upperback 4.5969 -8.93773 2.32418
thorax -1.98952 -4.55159 4.79892
lowerneck -15.8699 15.403 -7.61957
upperneck 17.6477 23.8221 -6.34709
head 8.03556 9.94229 1.69544
rclavicle 7.87187e-014 9.54166e-015
rhumerus -15.4759 -54.4809 -46.6064
rradius 59.7722
rwrist -80.7103
rhand -22.9214 408.192
rfingers 7.12502
rthumb 3.51903 18.2409
lclavicle 7.87187e-014 9.54166e-015
lhumerus 21.1633 -57.1622 84.2934
lradius 80.5296
lwrist -5.04011
lhand -4.09655 36.1397
lfingers 7.12502
lthumb 21.6612 64.948
rfemur -8.25755 3.08829 10.7358
rtibia 23.4642
rfoot 3.25667 -33.482
rtoes 5.37186
lfemur -36.9324 15.0712 -11.3602
ltibia 54.6942
lfoot -26.0285 6.75469
ltoes -0.58085
392
root 14.0448 17.5644 29.5819 50.6177 -71.5234 -39.979
lowerback 13.3082 -6.4966 -2.00831
upperback 4.66839 -8.90848 2.03758
thorax -1.83367 -4.53588 4.49777
lowerneck -15.7702 15.2555 -7.29202
upperneck 17.7078 23.5173 -6.13919
head 8.04596 9.84815 1.68362
rclavicle 5.56597e-015 -2.22639e-014
rhumerus -17.9684 -55.1829 -43.8785
rradius 58.9072
rwrist -80.4854
rhand -23.6668 407.859
rfingers 7.12502
rthumb 2.79911 17.8973
lclavicle 5.56597e-015 -2.22639e-014
lhumerus 19.2467 -55.1368 83.636
lradius 81.2206
lwrist -1.56636
lhand -3.68272 36.43
lfingers 7.12502
lthumb 22.0586 65.1919
rfemur -8.92283 2.54409 10.3963
rtibia 25.3629
rfoot 4.36501 -33.4904
rtoes 9.19001
lfemur -36.5164 13.2894 -12.2362
ltibia 53.6961
lfoot -25.8029 6.47794
ltoes 2.60538
393
root 14.0462 17.6199 29.6615 50.4936 -70.8358 -39.3596
lowerback 12.4413 -6.17742 -1.93616
upperback 4.58376 -8.46437 2.07341
thorax -1.50221 -4.31755 4.33505
lowerneck -15.4369 15.051 -7.0597
upperneck 17.5809 23.0971 -5.90236
head 7.93899 9.72352 1.648
rclavicle -1.69365e-013 4.45278e-014
rhumerus -21.2453 -55.5106 -40.6517
rradius 58.1243
rwrist -80.1888
rhand -23.9936 404.085
rfingers 7.12502
rthumb 2.4835 14.1201
lclavicle -1.69365e-013 4.45278e-014
lhumerus 17.1288 -53.1172 83.1125
lradius 81.4951
lwrist 0.306672
lhand -3.59602 37.0947
lfingers 7.12502
lthumb 22.1419 65.8468
rfemur -10.3035 3.14849 11.1616
rtibia 27.5039
rfoot 3.66391 -32.9457
rtoes 14.6117
lfemur -36.6723 12.7117 -12.1915
ltibia 52.788
lfoot -25.6507 5.96562
ltoes 4.55698
394
root 14.0531 17.6726 29.7519 47.917 -70.317 -36.7208
lowerback 12.2039 -5.93086 -2.2922
upperback 4.58838 -8.17646 1.91975
thorax -1.36771 -4.17646 4.30651
lowerneck -15.0789 14.8128 -6.77843
upperneck 17.4396 22.6499 -5.824
head 7.85055 9.56989 1.55747
rclavicle 6.67916e-014 4.77083e-015
rhumerus -24.7507 -55.7255 -37.2171
rradius 57.3399
rwrist -79.6885
rhand -23.2257 395.622
rfingers 7.12502
rthumb 3.22518 5.66635
lclavicle 6.67916e-014 4.77083e-015
lhumerus 14.9932 -50.8773 82.6937
lradius 81.3268
lwrist 0.254677
lhand -3.33385 37.7998
lfingers 7.12502
lthumb 22.3935 66.5218
rfemur -10.9839 3.22801 11.3071
rtibia 29.7653
rfoot 2.85332 -30.6997
rtoes 17.7903
lfemur -36.305 11.8691 -12.84
ltibia 51.8927
lfoot -25.4927 5.60678
ltoes 4.76133
395
root 14.0636 17.7217 29.8491 45.0956 -69.4786 -33.9938
lowerback 12.1265 -5.77503 -2.40635
upperback 4.73139 -7.9865 1.76396
thorax -1.20059 -4.08721 4.16675
lowerneck -14.7263 14.6103 -6.33369
upperneck 17.2898 22.2342 -5.80776
head 7.78462 9.43451 1.43455
rclavicle -4.53229e-014 1.90833e-014
rhumerus -28.3668 -56.3466 -33.8234
rradius 56.7786
rwrist -78.7815
rhand -20.0717 381.315
rfingers 7.12502
rthumb 6.27059 -8.57266
lclavicle -4.53229e-014 1.90833e-014
lhumerus 13.3795 -48.5042 81.7339
lradius 80.6154
lwrist -0.878556
lhand -2.75518 38.0457
lfingers 7.12502
lthumb 22.9489 66.6998
rfemur -11.3875 2.68708 11.7605
rtibia 31.9712
rfoot 2.77326 -27.2001
rtoes 14.3667
lfemur -35.7765 11.0817 -13.3692
ltibia 50.9671
lfoot -25.1338 4.97685
ltoes 3.71069
396
root 14.0735 17.7674 29.9344 43.4322 -68.2447 -32.4881
lowerback 12.1698 -5.71576 -2.1582
upperback 4.80151 -7.87997 1.86639
thorax -1.17867 -4.03489 4.12604
lowerneck -14.4821 14.3989 -6.4451
upperneck 17.365 21.8651 -5.34462
head 7.69646 9.31129 1.52666
rclavicle -2.14687e-014 2.54444e-014
rhumerus -31.8123 -56.6463 -30.5865
rradius 56.3026
rwrist -77.7579
rhand -11.5216 359.467
rfingers 7.12502
rthumb 14.518 -30.0046
lclavicle -2.14687e-014 2.54444e-014
lhumerus 11.7156 -45.6779 80.8878
lradius 79.59
lwrist -2.39828
lhand -2.21222 38.0889
lfingers 7.12502
lthumb 23.4698 66.6774
rfemur -11.7321 2.36601 12.9964
rtibia 34.0341
rfoot 1.98786 -23.9827
rtoes 8.19245
lfemur -35.2288 10.6861 -13.3095
ltibia 49.9087
lfoot -24.4941 3.84855
ltoes 2.80299
397
root 14.0778 17.8253 30.0174 41.4274 -67.0495 -30.6394
lowerback 12.181 -5.64008 -2.06858
upperback 4.89516 -7.77006 2.01025
thorax -1.08706 -3.98589 4.20791
lowerneck -14.4558 14.0231 -7.01116
upperneck 17.581 21.379 -4.77202
head 7.63724 9.09424 1.71868
rclavicle 2.46493e-014 3.02153e-014
rhumerus -35.2084 -56.6923 -27.3092
rradius 55.5716
rwrist -76.9905
rhand -11.7974 361.09
rfingers 7.12502
rthumb 14.2522 -28.4011
lclavicle 2.46493e-014 3.02153e-014
lhumerus 10.2291 -42.6746 80.2597
lradius 78.386
lwrist -3.88358
lhand -2.26471 38.2738
lfingers 7.12502
lthumb 23.4195 66.8687
rfemur -11.9658 2.454 14.0874
rtibia 35.9019
rfoot -0.340028 -21.6758
rtoes 5.84087
lfemur -34.5282 10.4754 -13.4654
ltibia 48.6719
lfoot -23.8698 2.09975
ltoes 5.38692
398
root 14.0788 17.8895 30.0985 38.4943 -66.1439 -27.793
lowerback 12.1592 -5.45908 -2.67956
upperback 5.0852 -7.60319 2.11291
thorax -0.794558 -3.92565 4.61223
lowerneck -14.4769 13.598 -7.53551
upperneck 17.6519 20.8763 -4.54138
head 7.59083 8.84362 1.80655
rclavicle 9.78021e-014 -2.8625e-014
rhumerus -38.7295 -56.9243 -23.8355
rradius 54.6602
rwrist -75.9876
rhand -11.4112 361.244
rfingers 7.12502
rthumb 14.6243 -28.2204
lclavicle 9.78021e-014 -2.8625e-014
lhumerus 9.18124 -39.7251 79.4047
lradius 76.9731
lwrist -4.93576
lhand -3.08155 38.3154
lfingers 7.12502
lthumb 22.6357 67.008
rfemur -12.1393 2.38587 14.5676
rtibia 37.5232
rfoot -3.53614 -19.5738
rtoes 5.99457
lfemur -33.7013 10.2762 -14.2675
ltibia 47.293
lfoot -23.3212 0.00246612
ltoes 9.30124
399
root 14.0789 17.9496 30.1714 36.2763 -65.0811 -25.6059
lowerback 12.1277 -5.35289 -3.1627
upperback 5.23005 -7.51748 2.29378
thorax -0.543896 -3.90542 5.04065
lowerneck -14.3057 13.3189 -8.00531
upperneck 17.5881 20.5317 -4.36467
head 7.47925 8.68295 1.86635
rclavicle -7.95139e-016 -1.59028e-014
rhumerus -42.0724 -57.2281 -20.5354
rradius 53.5302
rwrist -74.3771
rhand -10.3536 360.32
rfingers 7.12502
rthumb 15.6432 -29.0678
lclavicle -7.95139e-016 -1.59028e-014
lhumerus 8.0282 -36.539 78.3968
lradius 75.4921
lwrist -5.58154
lhand -4.1052 38.117
lfingers 7.12502
lthumb 21.6529 66.9263
rfemur -12.3772 1.75134 15.476
rtibia 38.8
rfoot -5.75711 -17.2149
rtoes 1.3924
lfemur -32.9783 10.1257 -14.8145
ltibia 45.914
lfoot -22.7319 -2.01022
ltoes 11.4663
400
root 14.0871 18.0111 30.2551 34.8474 -63.9006 -23.9175
lowerback 11.9809 -5.25411 -3.19664
upperback 5.18238 -7.38147 2.49763
thorax -0.496649 -3.84067 5.24411
lowerneck -14.2492 12.9941 -8.33578
upperneck 17.9817 20.1581 -4.20439
head 7.55821 8.46875 1.93576
rclavicle -1.55052e-013 6.20208e-014
rhumerus -45.8672 -57.3554 -16.8067
rradius 52.3405
rwrist -73.2223
rhand -9.50792 360.4
rfingers 7.12502
rthumb 16.4575 -28.9217
lclavicle -1.55052e-013 6.20208e-014
lhumerus 6.83995 -33.4277 77.6165
lradius 73.8043
lwrist -6.04402
lhand -6.32091 38.5263
lfingers 7.12502
lthumb 19.5238 67.566
rfemur -12.8776 1.04809 16.5577
rtibia 39.6974
rfoot -7.68715 -14.8201
rtoes -1.19103
lfemur -32.658 10.1775 -15.3036
ltibia 44.6765
lfoot -22.1642 -3.84794
ltoes 12.1916
